<svg width="52" height="34" viewBox="0 0 52 34" fill="none" xmlns="http://www.w3.org/2000/svg">
<path d="M30.5199 31.8245L27.845 29.1497L30.6126 26.3821L33.2874 29.057C34.3064 30.0759 35.9585 30.0759 36.9775 29.057L47.3219 18.7126C48.3408 17.6936 48.3408 16.0415 47.3219 15.0225L36.9775 4.67815C35.9585 3.65916 34.3064 3.65916 33.2874 4.67815L30.6126 7.35298L27.845 4.58543L30.5199 1.9106C33.0673 -0.636865 37.1976 -0.636866 39.745 1.9106L50.0894 12.255C52.6369 14.8024 52.6369 18.9327 50.0894 21.4801L39.745 31.8245C37.1976 34.372 33.0673 34.372 30.5199 31.8245ZM12.255 1.9106L1.91059 12.255C-0.636866 14.8024 -0.636864 18.9327 1.9106 21.4801L12.255 31.8245C14.8024 34.372 18.9327 34.372 21.4801 31.8245L31.8245 21.4801C34.372 18.9327 34.372 14.8024 31.8245 12.255L21.4801 1.9106C18.9327 -0.636866 14.8024 -0.636865 12.255 1.9106ZM4.67815 15.0225L15.0225 4.67815C16.0415 3.65916 17.6936 3.65916 18.7126 4.67815L29.057 15.0225C30.0759 16.0415 30.0759 17.6936 29.057 18.7126L18.7126 29.057C17.6936 30.0759 16.0415 30.0759 15.0225 29.057L4.67815 18.7126C3.65916 17.6936 3.65916 16.0415 4.67815 15.0225Z" fill="#3F3BCB"/>
</svg>
