<svg width="44" height="44" viewBox="0 0 44 44" fill="none" xmlns="http://www.w3.org/2000/svg">
<path d="M20.9542 0C32.5268 0 41.9083 9.3815 41.9083 20.9542C41.9083 22.3447 41.7729 23.7036 41.5145 25.0184C41.0008 23.6334 40.013 22.4787 38.7482 21.7514C38.7598 21.4871 38.7657 21.2213 38.7657 20.9542C38.7657 19.5098 38.5938 18.1056 38.2693 16.7609L31.2339 16.7627C31.3649 18.1191 31.4329 19.5211 31.4329 20.9542C31.4329 21.4878 31.4235 22.017 31.4049 22.5413C30.1333 23.6914 29.3344 25.3544 29.3344 27.204C29.3344 28.446 29.6946 29.604 30.3164 30.5789C30.2471 30.8568 30.1749 31.1311 30.0997 31.4016C28.2079 31.5021 26.5826 32.6063 25.7463 34.1914C26.2664 33.0809 26.7285 31.7992 27.1114 30.3815H14.7969C16.163 35.4393 18.5375 38.7657 20.9542 38.7657C22.6223 38.7657 24.2703 37.1809 25.5805 34.5357C25.2999 35.1776 25.1442 35.8866 25.1442 36.6319C25.1442 38.3436 25.5585 39.8928 26.3089 41.2179C24.5997 41.6684 22.8049 41.9083 20.9542 41.9083C9.3815 41.9083 0 32.5268 0 20.9542C0 9.3815 9.3815 0 20.9542 0ZM11.5437 30.3827L5.83981 30.3824C7.84762 33.5943 10.8508 36.1202 14.4175 37.528C13.3232 35.8104 12.4203 33.6602 11.7561 31.2103L11.5437 30.3827ZM10.6744 16.7626H3.63995L3.62998 16.7987C3.31135 18.1319 3.14264 19.5233 3.14264 20.9542C3.14264 23.1669 3.54613 25.2854 4.28355 27.2401L10.9316 27.2393C10.6335 25.2509 10.4755 23.1386 10.4755 20.9542C10.4755 19.5211 10.5435 18.1191 10.6744 16.7626ZM13.8373 16.7628C13.6948 18.1042 13.6181 19.5073 13.6181 20.9542C13.6181 23.1739 13.7986 25.2907 14.1204 27.2396H27.788C28.1098 25.2907 28.2902 23.1739 28.2902 20.9542C28.2902 19.5073 28.2136 18.1042 28.071 16.7628H13.8373ZM14.4197 4.38022L14.3717 4.39848C10.0824 6.10537 6.61288 9.43093 4.71752 13.6208L11.1036 13.6216C11.7601 9.94934 12.9058 6.75238 14.4197 4.38022ZM20.9542 3.14264L20.7119 3.15374C18.0607 3.39626 15.4994 7.59057 14.31 13.6207H27.5983C26.4122 7.60747 23.862 3.41979 21.2188 3.15587L20.9542 3.14264ZM27.4909 4.38034L27.7147 4.74508C29.1168 7.0758 30.1813 10.1344 30.8047 13.6216L37.1908 13.6208C35.3793 9.61627 32.1298 6.40127 28.101 4.63442L27.4909 4.38034Z" fill="#3F3BCB"/>
<path d="M40.8574 33.4893C42.593 33.4893 44 34.8963 44 36.6319C44 38.9702 43.0384 40.8436 41.4604 42.1102C39.9074 43.3567 37.8259 43.9647 35.6196 43.9647C33.4133 43.9647 31.3319 43.3567 29.7788 42.1102C29.2259 41.6663 28.7487 41.148 28.3619 40.5613C27.645 39.4736 27.2393 38.1508 27.2393 36.6319C27.2393 35.249 28.1325 34.0747 29.3735 33.6545C29.6901 33.5474 30.0292 33.4893 30.3819 33.4893H40.8574Z" fill="#3F3BCB"/>
<path d="M39.8098 27.204C39.8098 29.5181 37.9338 31.3942 35.6196 31.3942C35.543 31.3942 35.4669 31.3921 35.3913 31.388C34.4377 31.3368 33.5688 30.9668 32.8893 30.3826C32.0038 29.6213 31.44 28.4963 31.4296 27.2394C31.4295 27.2276 31.4294 27.2158 31.4294 27.204C31.4294 24.8898 33.3055 23.0138 35.6196 23.0138C36.7259 23.0138 37.7321 23.4425 38.4811 24.1429C39.2988 24.9076 39.8098 25.9961 39.8098 27.204Z" fill="#3F3BCB"/>
</svg>
