<svg width="44" height="40" viewBox="0 0 44 40" fill="none" xmlns="http://www.w3.org/2000/svg">
<path d="M37.1808 0C39.7844 0 41.8951 2.11066 41.8951 4.71429V18.4488C40.964 17.5571 39.9065 16.7962 38.7522 16.1958V4.71429C38.7522 3.84641 38.0486 3.14286 37.1808 3.14286H4.71429C3.84641 3.14286 3.14286 3.84641 3.14286 4.71429V28.8191C3.14286 29.687 3.84641 30.3906 4.71429 30.3906L10.4741 30.3893L10.4762 24.619C10.4762 22.6953 11.9578 21.1175 13.8421 20.9645L14.1429 20.9524H20.9981C20.3767 21.9229 19.8751 22.9775 19.514 24.0952H14.1429C13.8949 24.0952 13.6872 24.2675 13.6329 24.4989L13.619 24.619L13.617 30.3893H19.0186C19.1887 31.4861 19.4896 32.5396 19.9049 33.5334H4.71429C2.11066 33.5334 0 31.4228 0 28.8191V4.71429C0 2.11066 2.11066 0 4.71429 0H37.1808ZM20.9524 6.28668C24.4239 6.28668 27.2381 9.10089 27.2381 12.5724C27.2381 16.0439 24.4239 18.8581 20.9524 18.8581C17.4809 18.8581 14.6667 16.0439 14.6667 12.5724C14.6667 9.10089 17.4809 6.28668 20.9524 6.28668ZM20.9524 9.42954C19.2166 9.42954 17.8095 10.8366 17.8095 12.5724C17.8095 14.3081 19.2166 15.7153 20.9524 15.7153C22.6881 15.7153 24.0952 14.3081 24.0952 12.5724C24.0952 10.8366 22.6881 9.42954 20.9524 9.42954ZM44 28.2857C44 34.6501 38.8406 39.8095 32.4762 39.8095C26.1118 39.8095 20.9524 34.6501 20.9524 28.2857C20.9524 21.9213 26.1118 16.7619 32.4762 16.7619C38.8406 16.7619 44 21.9213 44 28.2857ZM33.6398 21.8337C33.2736 20.6586 31.6788 20.6586 31.3126 21.8337L30.1455 25.578H26.3687C25.1835 25.578 24.6907 27.159 25.6495 27.8852L28.705 30.1994L27.5379 33.9437C27.1717 35.1188 28.4618 36.0959 29.4207 35.3697L32.4762 33.0557L35.5317 35.3697C36.4906 36.0959 37.7807 35.1188 37.4145 33.9437L36.2474 30.1994L39.3028 27.8852C40.2617 27.159 39.7689 25.578 38.5837 25.578H34.8069L33.6398 21.8337Z" fill="#3F3BCB"/>
</svg>
