<svg width="48" height="48" viewBox="0 0 48 48" fill="none" xmlns="http://www.w3.org/2000/svg">
<path d="M18.3431 12.6863V15.5147H29.6568V12.6863C29.6568 9.56208 32.1895 7.02942 35.3137 7.02942C38.4379 7.02942 40.9705 9.56208 40.9705 12.6863C40.9705 15.8105 38.4379 18.3431 35.3137 18.3431H32.4853V29.6568H35.3137C38.4379 29.6568 40.9705 32.1895 40.9705 35.3137C40.9705 38.4379 38.4379 40.9705 35.3137 40.9705C32.1895 40.9705 29.6568 38.4379 29.6568 35.3137V32.4853H18.3431V35.3137C18.3431 38.4379 15.8105 40.9705 12.6863 40.9705C9.56208 40.9705 7.02942 38.4379 7.02942 35.3137C7.02942 32.1895 9.56208 29.6568 12.6863 29.6568H15.5147V18.3431H12.6863C9.56208 18.3431 7.02942 15.8105 7.02942 12.6863C7.02942 9.56208 9.56208 7.02942 12.6863 7.02942C15.8105 7.02942 18.3431 9.56208 18.3431 12.6863ZM15.5147 15.5147V12.6863C15.5147 11.1242 14.2484 9.85785 12.6863 9.85785C11.1242 9.85785 9.85785 11.1242 9.85785 12.6863C9.85785 14.2484 11.1242 15.5147 12.6863 15.5147H15.5147ZM29.6568 29.6568V18.3431H18.3431V29.6568H29.6568ZM32.4853 32.4853V35.3137C32.4853 36.8758 33.7516 38.1421 35.3137 38.1421C36.8758 38.1421 38.1421 36.8758 38.1421 35.3137C38.1421 33.7516 36.8758 32.4853 35.3137 32.4853H32.4853ZM35.3137 15.5147C36.8758 15.5147 38.1421 14.2484 38.1421 12.6863C38.1421 11.1242 36.8758 9.85785 35.3137 9.85785C33.7516 9.85785 32.4853 11.1242 32.4853 12.6863V15.5147H35.3137ZM15.5147 32.4853H12.6863C11.1242 32.4853 9.85785 33.7516 9.85785 35.3137C9.85785 36.8758 11.1242 38.1421 12.6863 38.1421C14.2484 38.1421 15.5147 36.8758 15.5147 35.3137V32.4853Z" fill="#3F3BCB"/>
<path d="M12 20L14 22L22 14L20 12C17.7909 9.79086 17.7909 6.20914 20 4C22.2091 1.79086 25.7909 1.79086 28 4C30.2091 6.20914 30.2091 9.79086 28 12L26 14L34 22L36 20C38.2091 17.7909 41.7909 17.7909 44 20C46.2091 22.2091 46.2091 25.7909 44 28C41.7909 30.2091 38.2091 30.2091 36 28L34 26L26 34L28 36C30.2091 38.2091 30.2091 41.7909 28 44C25.7909 46.2091 22.2091 46.2091 20 44C17.7909 41.7909 17.7909 38.2091 20 36L22 34L14 26L12 28C9.79086 30.2091 6.20914 30.2091 4 28C1.79086 25.7909 1.79086 22.2091 4 20C6.20914 17.7909 9.79086 17.7909 12 20ZM12 24L10 22C8.89543 20.8954 7.10457 20.8954 6 22C4.89543 23.1046 4.89543 24.8954 6 26C7.10457 27.1046 8.89543 27.1046 10 26L12 24ZM32 24L24 16L16 24L24 32L32 24ZM36 24L38 26C39.1046 27.1046 40.8954 27.1046 42 26C43.1046 24.8954 43.1046 23.1046 42 22C40.8954 20.8954 39.1046 20.8954 38 22L36 24ZM26 10C27.1046 8.89543 27.1046 7.10457 26 6C24.8954 4.89543 23.1046 4.89543 22 6C20.8954 7.10457 20.8954 8.89543 22 10L24 12L26 10ZM24 36L22 38C20.8954 39.1046 20.8954 40.8954 22 42C23.1046 43.1046 24.8954 43.1046 26 42C27.1046 40.8954 27.1046 39.1046 26 38L24 36Z" fill="#3F3BCB"/>
</svg>
