<svg width="137" height="41" viewBox="0 0 137 41" fill="none" xmlns="http://www.w3.org/2000/svg">
<g clip-path="url(#clip0_415_2130)">
<path d="M26.7841 14.3668C26.7841 14.3668 24.6069 12.5651 21.8293 12.5651C21.8293 12.5651 18.5261 12.5651 16.1988 14.9674C16.1988 14.9674 13.8716 17.3697 13.8716 20.6729C13.8716 20.6729 13.8716 23.9761 16.1988 26.3784C16.1988 26.3784 18.5261 28.7056 21.8293 28.7056C21.8293 28.7056 24.6069 28.7056 26.7841 26.979L27.8351 28.03C27.8351 28.03 25.2076 30.2071 21.8293 30.2071C21.8293 30.2071 17.9255 30.2071 15.1478 27.3543C15.1478 27.3543 12.3702 24.5767 12.3702 20.6729C12.3702 20.6729 12.3702 16.7691 15.1478 13.9915C15.1478 13.9915 17.9255 11.1387 21.8293 11.1387C21.8293 11.1387 25.2076 11.1387 27.8351 13.2407L26.7841 14.3668Z" fill="white"/>
<path d="M34.3656 17.895C31.8132 17.895 30.0114 19.6968 30.0114 19.6968C28.2097 21.4985 28.2097 24.051 28.2097 24.051C28.2097 26.6034 30.0114 28.4052 30.0114 28.4052C31.8132 30.2069 34.3656 30.2069 34.3656 30.2069C37.2934 30.2069 39.2454 27.7295 39.2454 27.7295V29.9066H40.5967V18.2704H39.2454V20.2974C37.3686 17.895 34.3656 17.895 34.3656 17.895ZM34.3656 19.2464C36.3176 19.2464 37.7439 20.5977 37.7439 20.5977C39.1703 22.024 39.1703 24.051 39.1703 24.051C39.1703 26.0028 37.7439 27.4292 37.7439 27.4292C36.3176 28.8556 34.3656 28.8556 34.3656 28.8556C32.3387 28.8556 30.9874 27.4292 30.9874 27.4292C29.561 26.0028 29.561 24.051 29.561 24.051C29.561 22.024 30.9874 20.5977 30.9874 20.5977C32.3387 19.2464 34.3656 19.2464 34.3656 19.2464Z" fill="white"/>
<path d="M59.9659 12.9405C59.9659 12.9405 59.1401 12.9405 59.1401 12.1147C59.1401 12.1147 59.1401 11.2139 59.9659 11.2139C59.9659 11.2139 60.8668 11.2139 60.8668 12.1147C60.8668 12.1147 60.8668 12.9405 59.9659 12.9405Z" fill="white"/>
<path d="M44.6514 11.2139V29.9069H43.225V11.2139H44.6514Z" fill="white"/>
<path d="M51.7838 27.3548L55.9129 18.271H57.4143L51.7838 30.658L46.0032 18.271H47.5798L51.7838 27.3548Z" fill="white"/>
<path d="M64.5455 19.3969C64.5455 19.3969 65.6715 17.8955 67.8486 17.8955C67.8486 17.8955 69.8006 17.8955 71.1518 19.2468C71.1518 19.2468 72.5032 20.5981 72.5032 22.55V29.9071H71.1518V22.55C71.1518 22.55 71.1518 21.1236 70.1759 20.1477C70.1759 20.1477 69.275 19.1717 67.8486 19.1717C67.8486 19.1717 66.4974 19.1717 65.5214 20.0726C65.5214 20.0726 64.5455 21.0486 64.5455 22.55V29.9071H63.1942V18.2709H64.5455V19.3969Z" fill="white"/>
<path d="M60.6417 18.271V29.9072H59.2903V18.271H60.6417Z" fill="white"/>
<path d="M90.4461 11.2889L83.0136 19.3217L90.3705 29.9069H88.6441L82.0377 20.3727L80.6864 21.7991V29.9069H79.3351V11.2139H80.6864V19.6971L88.4937 11.2889H90.4461Z" fill="white"/>
<path d="M93.8988 11.2139V29.9069H92.4725V11.2139H93.8988Z" fill="white"/>
<path d="M102.231 17.895C99.6788 17.895 97.8776 19.6968 97.8776 19.6968C96.1504 21.4235 96.1505 24.051 96.1505 24.051C96.1505 26.6034 97.8776 28.3301 97.8776 28.3301C99.6788 30.1319 102.231 30.1319 102.231 30.1319C106.135 30.1319 107.787 26.6785 107.787 26.6785L106.586 26.153C105.234 28.7805 102.231 28.7805 102.231 28.7805C100.28 28.7805 98.9282 27.4292 98.9282 27.4292C97.5019 26.078 97.5019 24.126 97.5019 24.126H108.388V24.051C108.388 21.4235 106.586 19.6968 106.586 19.6968C104.784 17.895 102.231 17.895 102.231 17.895ZM102.231 19.1713C103.883 19.1713 105.16 20.2222 105.16 20.2222C106.435 21.1982 106.886 22.6996 106.886 22.6996H97.6524C98.1029 21.1982 99.304 20.2222 99.304 20.2222C100.655 19.1713 102.231 19.1713 102.231 19.1713Z" fill="white"/>
<path d="M110.49 12.1147C110.49 12.1147 110.49 11.2139 111.315 11.2139C111.315 11.2139 112.141 11.2139 112.141 12.1147C112.141 12.1147 112.141 12.9405 111.315 12.9405C111.315 12.9405 110.49 12.9405 110.49 12.1147Z" fill="white"/>
<path d="M116.046 18.2709V19.3969C116.046 19.3969 117.097 17.8955 119.349 17.8955C119.349 17.8955 121.3 17.8955 122.652 19.2468C122.652 19.2468 124.003 20.5981 124.003 22.55V29.9071H122.577V22.55C122.577 22.55 122.577 21.1236 121.676 20.1477C121.676 20.1477 120.7 19.1717 119.349 19.1717C119.349 19.1717 117.922 19.1717 117.021 20.0726C117.021 20.0726 116.046 21.0486 116.046 22.55V29.9071H114.619V18.2709H116.046Z" fill="white"/>
<path d="M111.992 18.271V29.9072H110.64V18.271H111.992Z" fill="white"/>
</g>
<defs>
<clipPath id="clip0_415_2130">
<rect width="136" height="40" fill="white" transform="translate(0.186279 0.898438)"/>
</clipPath>
</defs>
</svg>
