<svg width="114" height="20" viewBox="0 0 114 20" fill="none" xmlns="http://www.w3.org/2000/svg">
<path d="M111.07 0.640769L108.414 0.63179V3.48668L111.07 3.47251V19.3268H113.726V0.640769H111.07ZM105.119 5.1828C105.119 2.68943 103.947 0.483398 101.185 0.483398C98.9698 0.483398 97.1995 2.31845 97.1995 4.55237V6.02164H99.855V4.4966C99.855 3.63035 100.374 3.15729 101.157 3.15729C102.459 3.15729 102.459 4.28346 102.459 5.22911C102.459 6.2532 102.459 6.77683 101.991 7.69459L97.1995 16.8009V19.3221H105.119V16.6435H100.327L104.234 9.05706C105.068 7.46255 105.119 6.98997 105.119 5.1828ZM80.1264 8.98759H78.6155V3.16202H79.9969C81.9525 3.16202 82.2629 4.18611 82.2629 6.07693C82.2629 7.93561 81.9803 8.98759 80.1264 8.98759ZM84.9231 6.12797C84.9231 2.50418 83.3844 0.640769 80.2332 0.640769H75.9601V19.3268H78.6155V11.351H80.2053L82.6802 19.3316H85.4931L82.6292 10.7995C84.3206 9.85384 84.9231 8.27824 84.9231 6.12797ZM63.9431 19.3268H71.8637V16.6482H66.6033V11.1658H71.1869V8.64449H66.6033V3.16202H71.8637V0.640769H63.9431V19.3268ZM55.0221 13.6865H54.9711L52.8624 0.640769H50.0496L53.8265 19.3268H56.1714L59.9762 0.640769H57.1634L55.0221 13.6865ZM38.7183 19.3268H46.6384V16.6482H41.3738V11.1658H45.9574V8.64449H41.3738V3.16202H46.6342V0.640769H38.7183V19.3268ZM29.6352 8.98759H28.1244V3.16202H29.5053C31.4613 3.16202 31.7718 4.18611 31.7718 6.07693C31.7671 7.93561 31.4845 8.98759 29.6352 8.98759ZM34.4273 6.12797C34.4273 2.50418 32.8885 0.640769 29.7373 0.640769H25.4642V19.3268H28.1196V11.351H29.7094L32.1839 19.3316H34.9972L32.1329 10.7995C33.8294 9.85384 34.4273 8.27824 34.4273 6.12797ZM18.5361 14.9195C18.5361 16.2078 17.7015 16.8103 16.7379 16.8103C15.7738 16.8103 14.9397 16.2078 14.9397 14.9195V5.04811C14.9397 3.75984 15.7738 3.15729 16.7379 3.15729C17.7015 3.15729 18.5361 3.75984 18.5361 5.04811V14.9195ZM16.7379 0.483398C14.5734 0.483398 12.2842 2.00323 12.2842 5.04811V14.9148C12.2842 17.9597 14.5781 19.4795 16.7379 19.4795C18.9018 19.4795 21.1915 17.9597 21.1915 14.9148V5.04811C21.1915 2.00323 18.9018 0.483398 16.7379 0.483398ZM0.647217 19.3268H3.30268V11.351H7.8863V8.82975H3.30268V3.16202H8.56257V0.640769H0.647217V19.3268Z" fill="white"/>
</svg>
