<svg width="121" height="31" viewBox="0 0 121 31" fill="none" xmlns="http://www.w3.org/2000/svg">
<g clip-path="url(#clip0_415_2084)">
<g clip-path="url(#clip1_415_2084)">
<path d="M26.7632 1.25391H4.48779C2.42875 1.25391 0.785889 2.89311 0.785889 4.90762V26.8891C0.785889 28.9037 2.44915 30.5429 4.48779 30.5429H26.7442C28.8032 30.5429 30.4461 28.9037 30.4461 26.8891V4.92739C30.4665 2.89311 28.8032 1.25391 26.7632 1.25391ZM19.5756 6.62589C19.5756 6.09258 20.0122 5.6581 20.5657 5.6581C21.1206 5.6581 21.5558 6.09258 21.5558 6.62589V19.6804C21.5558 20.2137 21.1206 20.6482 20.5657 20.6482C20.0122 20.6482 19.5756 20.2137 19.5756 19.6804V6.62589ZM14.6456 6.13211C14.6456 5.5988 15.0808 5.16433 15.6357 5.16433C16.1906 5.16433 16.6258 5.5988 16.6258 6.13211V20.2927C16.6258 20.826 16.1906 21.2605 15.6357 21.2605C15.0808 21.2605 14.6456 20.826 14.6456 20.2927V6.13211ZM9.69524 6.62589C9.69524 6.09258 10.1318 5.6581 10.6853 5.6581C11.2402 5.6581 11.6754 6.09258 11.6754 6.62589V19.6804C11.6754 20.2137 11.2402 20.6482 10.6853 20.6482C10.1318 20.6482 9.69524 20.2137 9.69524 19.6804V6.62589ZM4.74619 8.5811C4.74619 8.04779 5.18139 7.61331 5.73627 7.61331C6.28979 7.61331 6.72497 8.04779 6.72497 8.5811V17.3697C6.72497 17.903 6.28979 18.3375 5.73627 18.3375C5.18139 18.3375 4.74619 17.903 4.74619 17.3697V8.5811ZM26.1689 23.4724C26.0112 23.6106 22.3473 26.6323 15.6357 26.6323C8.9241 26.6323 5.26026 23.5908 5.1025 23.4724C4.68634 23.1168 4.64691 22.5047 5.00323 22.0899C5.35955 21.6752 5.97292 21.6356 6.38908 21.9912C6.44892 22.0307 9.71562 24.6969 15.6357 24.6969C21.6347 24.6969 24.862 22.0307 24.8824 22.0109C25.2985 21.6554 25.9119 21.7147 26.2682 22.1096C26.6246 22.5047 26.5851 23.1366 26.1689 23.4724ZM26.5062 17.3697C26.5062 17.903 26.071 18.3375 25.5161 18.3375C24.9613 18.3375 24.5261 17.903 24.5261 17.3697V8.5811C24.5261 8.04779 24.9613 7.61331 25.5161 7.61331C26.071 7.61331 26.5062 8.04779 26.5062 8.5811V17.3697Z" fill="white"/>
<path d="M41.9707 20.1336C41.9707 20.6273 41.5954 21.0224 41.0609 21.0224C40.5454 21.0224 40.1687 20.6273 40.1687 20.1336V11.6411C40.1687 11.1475 40.5455 10.7524 41.0799 10.7524C41.5954 10.7524 41.9707 11.1475 41.9707 11.6411V20.1336Z" fill="white"/>
<path d="M53.6116 11.6428V19.4045C53.6116 20.4512 53.0567 21.0437 52.1469 21.0437H52.0666C51.2153 21.0437 50.8195 20.5499 50.4441 19.839L48.6217 16.3235L47.0183 12.6895L47.0577 16.205L47.0782 20.1352C47.0782 20.6288 46.7014 21.0239 46.1669 21.0239C45.6515 21.0239 45.2761 20.6288 45.2761 20.1352V12.3735C45.2761 11.4057 45.8297 10.7344 46.8198 10.7344H46.9C47.8098 10.7344 48.1866 11.228 48.5429 11.9391L50.3245 15.4348L51.849 18.8316L51.8096 15.573L51.7906 11.6428C51.7906 11.149 52.1659 10.754 52.7004 10.754C53.2349 10.754 53.6116 11.1688 53.6116 11.6428Z" fill="white"/>
<path d="M60.8182 20.1343C60.8182 20.6281 60.4428 21.023 59.9084 21.023C59.3929 21.023 59.0176 20.6281 59.0176 20.1343V12.4517H56.779C56.3234 12.4517 55.948 12.1159 55.948 11.6024C55.948 11.1087 56.3234 10.7729 56.779 10.7729H63.0568C63.511 10.7729 63.8877 11.1087 63.8877 11.6222C63.8877 12.1159 63.511 12.4517 63.0568 12.4517H60.8182V20.1343Z" fill="white"/>
<path d="M66.2475 19.8379V11.8591C66.2475 11.1086 66.6623 10.6938 67.4348 10.7136H72.6218C73.0774 10.7136 73.4542 11.0691 73.4542 11.5629C73.4542 12.0565 73.0774 12.3923 72.6218 12.3923H68.0291V14.861H72.0683C72.5239 14.861 72.8802 15.1968 72.8802 15.6708C72.8802 16.1447 72.5239 16.4805 72.0683 16.4805H68.0291V19.3244H72.6028C73.0584 19.3244 73.4338 19.6799 73.4338 20.1737C73.4338 20.6675 73.0584 21.0031 72.6028 21.0031H67.375C66.6433 21.0229 66.2067 20.6082 66.2475 19.8379Z" fill="white"/>
<path d="M83.6868 19.8575C83.9248 20.2722 83.7671 20.8055 83.272 21.0622C82.777 21.2992 82.2411 21.1214 82.0045 20.7067L80.004 17.0134H78.104L78.1231 20.1537C78.1231 20.6475 77.7477 21.0425 77.2119 21.0425C76.6978 21.0425 76.3211 20.6475 76.3211 20.1537V11.8785C76.3211 11.128 76.7372 10.7133 77.5097 10.7331H80.8948C83.2516 10.7331 84.2213 12.2538 84.2213 13.814C84.2213 15.2953 83.3509 16.3816 81.8658 16.6778L83.6868 19.8575ZM78.0836 15.394H80.9356C81.9052 15.394 82.4003 14.7818 82.4003 13.893C82.4003 13.0241 81.8658 12.4118 80.9151 12.4118H78.0836V15.394Z" fill="white"/>
<path d="M87.9437 20.2525C86.8543 19.2847 86.3797 17.7837 86.3797 15.8878C86.3797 13.972 86.8543 12.4908 87.9233 11.5428C88.5774 10.9701 89.4886 10.5752 90.7752 10.5752C91.923 10.5752 92.7948 10.8319 93.4476 11.3848C94.0228 11.839 94.4376 12.4908 94.696 13.3993C94.8334 13.8733 94.4975 14.3473 93.9426 14.446C93.4285 14.5251 93.0124 14.2091 92.8546 13.7351C92.6765 13.2808 92.4575 12.9451 92.1814 12.7081C91.8047 12.3724 91.3491 12.2341 90.7357 12.2341C90.0816 12.2341 89.5281 12.4119 89.1119 12.8464C88.4985 13.4586 88.2402 14.5251 88.2402 15.8878C88.2402 17.2308 88.4781 18.3171 89.1119 18.9293C89.5281 19.344 90.0816 19.5416 90.7154 19.5416C91.3695 19.5416 91.8836 19.3638 92.2997 18.9885C92.5173 18.7911 92.6955 18.5342 92.8342 18.2182C93.0124 17.764 93.4081 17.448 93.9236 17.5666C94.4186 17.685 94.7355 18.1788 94.5764 18.6528C94.3194 19.4427 93.8638 20.0747 93.2694 20.5092C92.6166 20.9832 91.7843 21.2203 90.7548 21.2203C89.4084 21.2005 88.5774 20.8054 87.9437 20.2525Z" fill="white"/>
<path d="M96.7156 15.8879C96.7156 12.6686 98.0416 10.5752 101.171 10.5752C104.259 10.5752 105.606 12.6093 105.606 15.8879C105.606 19.2058 104.259 21.2006 101.171 21.2006C98.0226 21.2006 96.7156 19.2058 96.7156 15.8879ZM103.764 15.8879C103.764 13.4389 102.873 12.2539 101.15 12.2539C99.4682 12.2539 98.5761 13.4389 98.5761 15.8879C98.5761 18.3369 99.4478 19.5218 101.15 19.5218C102.853 19.5218 103.764 18.3369 103.764 15.8879Z" fill="white"/>
<path d="M119.586 20.1342C119.586 20.628 119.209 21.0229 118.675 21.0229C118.161 21.0229 117.784 20.628 117.784 20.1342V16.283L117.823 12.5305L116.576 16.3423L115.309 20.0947C115.091 20.7464 114.656 21.0229 114.081 21.0229C113.488 21.0229 113.051 20.7464 112.833 20.0947L111.526 16.362L110.339 12.6095L110.379 16.3027V20.154C110.379 20.6476 110.002 21.0427 109.467 21.0427C108.953 21.0427 108.577 20.6476 108.577 20.154V12.4712C108.577 11.4047 109.151 10.7925 110.161 10.7925C111.112 10.7925 111.646 11.2863 111.943 12.2145L113.27 16.1447L114.081 18.8109L114.892 16.1447L116.22 12.2145C116.516 11.2863 117.032 10.7925 118.001 10.7925C119.012 10.7925 119.565 11.4047 119.565 12.4712L119.586 20.1342Z" fill="white"/>
</g>
</g>
<defs>
<clipPath id="clip0_415_2084">
<rect width="120" height="30" fill="white" transform="translate(0.186279 0.898438)"/>
</clipPath>
<clipPath id="clip1_415_2084">
<rect width="120" height="30" fill="white" transform="translate(0.186279 0.898438)"/>
</clipPath>
</defs>
</svg>
