<svg width="128" height="23" viewBox="0 0 128 23" fill="none" xmlns="http://www.w3.org/2000/svg">
<path d="M23.42 5.78L25.84 5.38V8.54H29.56V10.56H25.84V14.82C25.84 15.66 25.9733 16.26 26.24 16.62C26.5067 16.98 26.96 17.16 27.6 17.16C28.04 17.16 28.4267 17.1133 28.76 17.02C29.1067 16.9267 29.38 16.84 29.58 16.76L29.98 18.68C29.7 18.8 29.3333 18.92 28.88 19.04C28.4267 19.1733 27.8933 19.24 27.28 19.24C26.5333 19.24 25.9067 19.14 25.4 18.94C24.9067 18.74 24.5133 18.4533 24.22 18.08C23.9267 17.6933 23.72 17.2333 23.6 16.7C23.48 16.1533 23.42 15.5333 23.42 14.84V5.78ZM35.5794 17.3C36.326 17.3 36.8927 17.26 37.2794 17.18V14.5C37.146 14.46 36.9527 14.42 36.6994 14.38C36.446 14.34 36.166 14.32 35.8594 14.32C35.5927 14.32 35.3194 14.34 35.0394 14.38C34.7727 14.42 34.526 14.4933 34.2994 14.6C34.086 14.7067 33.9127 14.86 33.7794 15.06C33.646 15.2467 33.5794 15.4867 33.5794 15.78C33.5794 16.3533 33.7594 16.7533 34.1194 16.98C34.4794 17.1933 34.966 17.3 35.5794 17.3ZM35.3794 8.28C36.1794 8.28 36.8527 8.38 37.3994 8.58C37.946 8.78 38.3794 9.06 38.6994 9.42C39.0327 9.78 39.266 10.22 39.3994 10.74C39.546 11.2467 39.6194 11.8067 39.6194 12.42V18.76C39.246 18.84 38.6794 18.9333 37.9194 19.04C37.1727 19.16 36.326 19.22 35.3794 19.22C34.7527 19.22 34.1794 19.16 33.6594 19.04C33.1394 18.92 32.6927 18.7267 32.3194 18.46C31.9594 18.1933 31.6727 17.8467 31.4594 17.42C31.2594 16.9933 31.1594 16.4667 31.1594 15.84C31.1594 15.24 31.2727 14.7333 31.4994 14.32C31.7394 13.9067 32.0594 13.5733 32.4594 13.32C32.8594 13.0533 33.3194 12.8667 33.8394 12.76C34.3727 12.64 34.926 12.58 35.4994 12.58C35.766 12.58 36.046 12.6 36.3394 12.64C36.6327 12.6667 36.946 12.72 37.2794 12.8V12.4C37.2794 12.12 37.246 11.8533 37.1794 11.6C37.1127 11.3467 36.9927 11.1267 36.8194 10.94C36.6594 10.74 36.4394 10.5867 36.1594 10.48C35.8927 10.3733 35.5527 10.32 35.1394 10.32C34.5794 10.32 34.066 10.36 33.5994 10.44C33.1327 10.52 32.7527 10.6133 32.4594 10.72L32.1594 8.76C32.466 8.65333 32.9127 8.54667 33.4994 8.44C34.086 8.33333 34.7127 8.28 35.3794 8.28ZM46.223 19.2C45.503 19.1867 44.903 19.1067 44.423 18.96C43.9563 18.8133 43.583 18.6067 43.303 18.34C43.023 18.06 42.823 17.72 42.703 17.32C42.5963 16.9067 42.543 16.44 42.543 15.92V3.88L44.963 3.48V15.46C44.963 15.7533 44.983 16 45.023 16.2C45.0763 16.4 45.163 16.5733 45.283 16.72C45.403 16.8533 45.563 16.96 45.763 17.04C45.9763 17.1067 46.243 17.16 46.563 17.2L46.223 19.2ZM47.9405 13.82C47.9405 12.9 48.0738 12.0933 48.3405 11.4C48.6205 10.7067 48.9871 10.1333 49.4405 9.68C49.8938 9.21333 50.4138 8.86667 51.0005 8.64C51.5871 8.4 52.1871 8.28 52.8005 8.28C54.2405 8.28 55.3605 8.72667 56.1605 9.62C56.9738 10.5133 57.3805 11.8467 57.3805 13.62C57.3805 13.7533 57.3738 13.9067 57.3605 14.08C57.3605 14.24 57.3538 14.3867 57.3405 14.52H50.4405C50.5071 15.36 50.8005 16.0133 51.3205 16.48C51.8538 16.9333 52.6205 17.16 53.6205 17.16C54.2071 17.16 54.7405 17.1067 55.2205 17C55.7138 16.8933 56.1005 16.78 56.3805 16.66L56.7005 18.64C56.5671 18.7067 56.3805 18.78 56.1405 18.86C55.9138 18.9267 55.6471 18.9867 55.3405 19.04C55.0471 19.1067 54.7271 19.16 54.3805 19.2C54.0338 19.24 53.6805 19.26 53.3205 19.26C52.4005 19.26 51.6005 19.1267 50.9205 18.86C50.2405 18.58 49.6805 18.2 49.2405 17.72C48.8005 17.2267 48.4738 16.6533 48.2605 16C48.0471 15.3333 47.9405 14.6067 47.9405 13.82ZM54.9605 12.74C54.9605 12.4067 54.9138 12.0933 54.8205 11.8C54.7271 11.4933 54.5871 11.2333 54.4005 11.02C54.2271 10.7933 54.0071 10.62 53.7405 10.5C53.4871 10.3667 53.1805 10.3 52.8205 10.3C52.4471 10.3 52.1205 10.3733 51.8405 10.52C51.5605 10.6533 51.3205 10.8333 51.1205 11.06C50.9338 11.2867 50.7871 11.5467 50.6805 11.84C50.5738 12.1333 50.5005 12.4333 50.4605 12.74H54.9605ZM59.9463 8.88C60.4129 8.74667 61.0196 8.62 61.7663 8.5C62.5129 8.38 63.3396 8.32 64.2463 8.32C65.0996 8.32 65.8129 8.44 66.3863 8.68C66.9596 8.90667 67.4129 9.23333 67.7463 9.66C68.0929 10.0733 68.3329 10.58 68.4663 11.18C68.6129 11.7667 68.6862 12.4133 68.6862 13.12V19H66.2663V13.5C66.2663 12.94 66.2263 12.4667 66.1463 12.08C66.0796 11.68 65.9596 11.36 65.7863 11.12C65.6263 10.8667 65.3996 10.6867 65.1063 10.58C64.8263 10.46 64.4796 10.4 64.0663 10.4C63.7596 10.4 63.4396 10.42 63.1063 10.46C62.7729 10.5 62.5263 10.5333 62.3663 10.56V19H59.9463V8.88ZM71.5255 5.78L73.9455 5.38V8.54H77.6655V10.56H73.9455V14.82C73.9455 15.66 74.0788 16.26 74.3455 16.62C74.6121 16.98 75.0655 17.16 75.7055 17.16C76.1455 17.16 76.5321 17.1133 76.8655 17.02C77.2121 16.9267 77.4855 16.84 77.6855 16.76L78.0855 18.68C77.8055 18.8 77.4388 18.92 76.9855 19.04C76.5321 19.1733 75.9988 19.24 75.3855 19.24C74.6388 19.24 74.0121 19.14 73.5055 18.94C73.0121 18.74 72.6188 18.4533 72.3255 18.08C72.0321 17.6933 71.8255 17.2333 71.7055 16.7C71.5855 16.1533 71.5255 15.5333 71.5255 14.84V5.78ZM82.6248 17.26C83.2648 17.26 83.7315 17.1867 84.0248 17.04C84.3182 16.88 84.4648 16.6133 84.4648 16.24C84.4648 15.8933 84.3048 15.6067 83.9848 15.38C83.6782 15.1533 83.1648 14.9067 82.4448 14.64C82.0048 14.48 81.5982 14.3133 81.2248 14.14C80.8648 13.9533 80.5515 13.74 80.2848 13.5C80.0182 13.26 79.8048 12.9733 79.6448 12.64C79.4982 12.2933 79.4248 11.8733 79.4248 11.38C79.4248 10.42 79.7782 9.66667 80.4848 9.12C81.1915 8.56 82.1515 8.28 83.3648 8.28C83.9782 8.28 84.5648 8.34 85.1248 8.46C85.6848 8.56667 86.1048 8.67333 86.3848 8.78L85.9448 10.74C85.6782 10.62 85.3382 10.5133 84.9248 10.42C84.5115 10.3133 84.0315 10.26 83.4848 10.26C82.9915 10.26 82.5915 10.3467 82.2848 10.52C81.9782 10.68 81.8248 10.9333 81.8248 11.28C81.8248 11.4533 81.8515 11.6067 81.9048 11.74C81.9715 11.8733 82.0782 12 82.2248 12.12C82.3715 12.2267 82.5648 12.34 82.8048 12.46C83.0448 12.5667 83.3382 12.68 83.6848 12.8C84.2582 13.0133 84.7448 13.2267 85.1448 13.44C85.5448 13.64 85.8715 13.8733 86.1248 14.14C86.3915 14.3933 86.5848 14.6867 86.7048 15.02C86.8248 15.3533 86.8848 15.7533 86.8848 16.22C86.8848 17.22 86.5115 17.98 85.7648 18.5C85.0315 19.0067 83.9782 19.26 82.6048 19.26C81.6848 19.26 80.9448 19.18 80.3848 19.02C79.8248 18.8733 79.4315 18.7533 79.2048 18.66L79.6248 16.64C79.9848 16.7867 80.4115 16.9267 80.9048 17.06C81.4115 17.1933 81.9848 17.26 82.6248 17.26ZM89.0255 5.78L91.4455 5.38V8.54H95.1655V10.56H91.4455V14.82C91.4455 15.66 91.5788 16.26 91.8455 16.62C92.1121 16.98 92.5655 17.16 93.2055 17.16C93.6455 17.16 94.0321 17.1133 94.3655 17.02C94.7121 16.9267 94.9855 16.84 95.1855 16.76L95.5855 18.68C95.3055 18.8 94.9388 18.92 94.4855 19.04C94.0321 19.1733 93.4988 19.24 92.8855 19.24C92.1388 19.24 91.5121 19.14 91.0055 18.94C90.5121 18.74 90.1188 18.4533 89.8255 18.08C89.5321 17.6933 89.3255 17.2333 89.2055 16.7C89.0855 16.1533 89.0255 15.5333 89.0255 14.84V5.78ZM101.185 17.3C101.932 17.3 102.498 17.26 102.885 17.18V14.5C102.752 14.46 102.558 14.42 102.305 14.38C102.052 14.34 101.772 14.32 101.465 14.32C101.198 14.32 100.925 14.34 100.645 14.38C100.378 14.42 100.132 14.4933 99.9048 14.6C99.6915 14.7067 99.5182 14.86 99.3848 15.06C99.2515 15.2467 99.1848 15.4867 99.1848 15.78C99.1848 16.3533 99.3648 16.7533 99.7248 16.98C100.085 17.1933 100.572 17.3 101.185 17.3ZM100.985 8.28C101.785 8.28 102.458 8.38 103.005 8.58C103.552 8.78 103.985 9.06 104.305 9.42C104.638 9.78 104.872 10.22 105.005 10.74C105.152 11.2467 105.225 11.8067 105.225 12.42V18.76C104.852 18.84 104.285 18.9333 103.525 19.04C102.778 19.16 101.932 19.22 100.985 19.22C100.358 19.22 99.7848 19.16 99.2648 19.04C98.7448 18.92 98.2982 18.7267 97.9248 18.46C97.5648 18.1933 97.2782 17.8467 97.0648 17.42C96.8648 16.9933 96.7648 16.4667 96.7648 15.84C96.7648 15.24 96.8782 14.7333 97.1048 14.32C97.3448 13.9067 97.6648 13.5733 98.0648 13.32C98.4648 13.0533 98.9248 12.8667 99.4448 12.76C99.9782 12.64 100.532 12.58 101.105 12.58C101.372 12.58 101.652 12.6 101.945 12.64C102.238 12.6667 102.552 12.72 102.885 12.8V12.4C102.885 12.12 102.852 11.8533 102.785 11.6C102.718 11.3467 102.598 11.1267 102.425 10.94C102.265 10.74 102.045 10.5867 101.765 10.48C101.498 10.3733 101.158 10.32 100.745 10.32C100.185 10.32 99.6715 10.36 99.2048 10.44C98.7382 10.52 98.3582 10.6133 98.0648 10.72L97.7648 8.76C98.0715 8.65333 98.5182 8.54667 99.1048 8.44C99.6915 8.33333 100.318 8.28 100.985 8.28ZM107.608 13.78C107.608 13.0067 107.728 12.2867 107.968 11.62C108.208 10.94 108.548 10.3533 108.988 9.86C109.442 9.36667 109.988 8.98 110.628 8.7C111.268 8.42 111.988 8.28 112.788 8.28C113.775 8.28 114.708 8.46 115.588 8.82L115.068 10.8C114.788 10.68 114.468 10.58 114.108 10.5C113.762 10.42 113.388 10.38 112.988 10.38C112.042 10.38 111.322 10.68 110.828 11.28C110.335 11.8667 110.088 12.7 110.088 13.78C110.088 14.82 110.322 15.6467 110.788 16.26C111.255 16.86 112.042 17.16 113.148 17.16C113.562 17.16 113.968 17.12 114.368 17.04C114.768 16.96 115.115 16.86 115.408 16.74L115.748 18.74C115.482 18.8733 115.075 18.9933 114.528 19.1C113.995 19.2067 113.442 19.26 112.868 19.26C111.975 19.26 111.195 19.1267 110.528 18.86C109.875 18.58 109.328 18.2 108.888 17.72C108.462 17.2267 108.142 16.6467 107.928 15.98C107.715 15.3 107.608 14.5667 107.608 13.78ZM120.042 12.62C120.349 12.3 120.675 11.96 121.022 11.6C121.369 11.2267 121.709 10.86 122.042 10.5C122.375 10.1267 122.689 9.77333 122.982 9.44C123.289 9.09333 123.549 8.79333 123.762 8.54H126.622C125.955 9.28667 125.249 10.06 124.502 10.86C123.769 11.66 123.029 12.44 122.282 13.2C122.682 13.5333 123.102 13.94 123.542 14.42C123.982 14.8867 124.409 15.3867 124.822 15.92C125.235 16.4533 125.622 16.9867 125.982 17.52C126.342 18.0533 126.642 18.5467 126.882 19H124.082C123.842 18.5867 123.562 18.1533 123.242 17.7C122.935 17.2467 122.602 16.8067 122.242 16.38C121.882 15.9533 121.515 15.5533 121.142 15.18C120.769 14.7933 120.402 14.4667 120.042 14.2V19H117.622V3.88L120.042 3.48V12.62Z" fill="#3F3BCB"/>
<path d="M17.7727 3.78514C17.6718 3.32661 17.2656 3 16.7961 3H1.73022C1.26073 3 0.854452 3.32661 0.753576 3.78514L0.26726 5.99566C0.12999 6.61962 0.605024 7.21053 1.2439 7.21053H17.2824C17.9213 7.21053 18.3963 6.61962 18.259 5.99566L17.7727 3.78514Z" fill="#3F3BCB"/>
<path d="M3.48881 9.73607C3.56672 9.25126 3.9851 8.89474 4.47614 8.89474H14.2292C14.7402 8.89474 15.1691 9.28007 15.2235 9.78821L15.4603 11.9987C15.5237 12.5898 15.0605 13.1053 14.466 13.1053H4.12087C3.50528 13.1053 3.03586 12.5544 3.13354 11.9466L3.48881 9.73607Z" fill="#3F3BCB"/>
<path d="M6.70394 15.6736C6.76274 15.1695 7.18975 14.7895 7.6972 14.7895H10.8292C11.3367 14.7895 11.7637 15.1695 11.8225 15.6736L12.0804 17.8841C12.1497 18.4783 11.6854 19 11.0871 19H7.43931C6.8411 19 6.37672 18.4783 6.44604 17.8841L6.70394 15.6736Z" fill="#3F3BCB"/>
</svg>
