<svg width="120" height="41" viewBox="0 0 120 41" fill="none" xmlns="http://www.w3.org/2000/svg">
<g clip-path="url(#clip0_415_2095)">
<g clip-path="url(#clip1_415_2095)">
<path d="M7.31395 7.50102C8.55295 8.50402 9.02495 8.44502 11.3653 8.28769L33.4313 6.97002C33.9033 6.97002 33.51 6.49802 33.3526 6.41935L29.6946 3.76435C28.9866 3.21369 28.0623 2.60402 26.2726 2.74169L4.91461 4.29536C4.12795 4.37402 3.97061 4.76736 4.28528 5.08202L7.31395 7.50102ZM8.63162 12.634V35.8407C8.63162 37.0797 9.26095 37.5517 10.6573 37.473L34.9063 36.0767C36.3026 35.998 36.46 35.1327 36.46 34.1297V11.0803C36.46 10.0773 36.0666 9.52672 35.221 9.60532L9.89028 11.0803C8.94628 11.159 8.63162 11.631 8.63162 12.634ZM32.566 13.8927C32.7233 14.6007 32.566 15.289 31.858 15.3677L30.6976 15.6037V32.7334C29.675 33.284 28.7506 33.5987 27.964 33.5987C26.725 33.5987 26.4103 33.2054 25.4663 32.045L17.816 20.0483V31.6517L20.235 32.2023C20.235 32.2023 20.235 33.5987 18.288 33.5987L12.919 33.9134C12.7616 33.5987 12.919 32.8317 13.4696 32.6743L14.866 32.281V16.941L12.919 16.7837C12.7616 16.0757 13.155 15.0727 14.2366 14.994L19.999 14.6007L27.9443 26.7547V15.997L25.9186 15.761C25.7613 14.8957 26.3906 14.286 27.1576 14.2073L32.566 13.8927ZM3.10528 2.21069L25.3286 0.578351C28.0623 0.342353 28.7506 0.499691 30.4813 1.73869L37.581 6.71435C38.761 7.57969 39.1346 7.79603 39.1346 8.74003V36.0767C39.1346 37.7877 38.5053 38.8104 36.3223 38.9677L10.5196 40.5214C8.88728 40.6 8.10062 40.364 7.23528 39.2824L2.00395 32.4974C1.05995 31.2583 0.686279 30.3143 0.686279 29.2327V4.92469C0.686279 3.52835 1.31561 2.36802 3.10528 2.21069Z" fill="white"/>
<path d="M60.4735 33.8543H57.7202L49.7749 18.8486V33.8543H47.6902V17.0786H51.1515L58.4085 30.7666V17.0786H60.4932V33.8543H60.4735Z" fill="white"/>
<path d="M75.4812 27.5794C75.4812 29.6248 74.9502 31.2374 73.9078 32.4371C72.8655 33.6171 71.4495 34.2071 69.6795 34.2071C67.9095 34.2071 66.4935 33.6171 65.4315 32.4371C64.3892 31.2571 63.8582 29.6248 63.8582 27.5794C63.8582 25.5341 64.3892 23.9018 65.4315 22.7218C66.4738 21.5418 67.8898 20.9321 69.6795 20.9321C71.4495 20.9321 72.8458 21.5221 73.9078 22.7218C74.9502 23.9018 75.4812 25.5341 75.4812 27.5794ZM73.2982 27.5794C73.2982 25.9471 72.9835 24.7474 72.3345 23.9411C71.7052 23.1544 70.8202 22.7611 69.6795 22.7611C68.5388 22.7611 67.6342 23.1544 67.0048 23.9411C66.3755 24.7278 66.0608 25.9471 66.0608 27.5794C66.0608 29.1528 66.3755 30.3524 67.0245 31.1588C67.6538 31.9651 68.5585 32.3781 69.6992 32.3781C70.8202 32.3781 71.7052 31.9651 72.3542 31.1588C72.9835 30.3721 73.2982 29.1724 73.2982 27.5794Z" fill="white"/>
<path d="M85.2917 33.7559C84.8983 33.8542 84.4657 33.9525 83.9937 34.0115C83.5217 34.0705 83.1087 34.1099 82.735 34.1099C81.4567 34.1099 80.4733 33.7559 79.8047 33.0675C79.136 32.3792 78.8017 31.2779 78.8017 29.7439V23.0572H77.366V21.2872H78.8017V17.6685H80.9257V21.2872H85.2917V23.0572H80.9257V28.7802C80.9257 29.4489 80.9453 29.9602 80.965 30.3339C81.0043 30.7075 81.1027 31.0615 81.2797 31.3762C81.437 31.6712 81.673 31.8875 81.968 32.0252C82.263 32.1629 82.6957 32.2415 83.2857 32.2415C83.6397 32.2415 83.9937 32.1825 84.3673 32.0842C84.741 31.9859 85.0163 31.9072 85.1737 31.8285H85.2917V33.7559Z" fill="white"/>
<path d="M90.1128 19.1826H87.7332V16.98H90.1128V19.1826ZM89.9752 33.854H87.8512V21.2673H89.9752V33.854Z" fill="white"/>
<path d="M104.899 27.5794C104.899 29.6248 104.368 31.2374 103.326 32.4371C102.283 33.6171 100.867 34.2071 99.0975 34.2071C97.3275 34.2071 95.9115 33.6171 94.8495 32.4371C93.8071 31.2571 93.2761 29.6248 93.2761 27.5794C93.2761 25.5341 93.8071 23.9018 94.8495 22.7218C95.8918 21.5418 97.3078 20.9321 99.0975 20.9321C100.867 20.9321 102.264 21.5221 103.326 22.7218C104.368 23.9018 104.899 25.5341 104.899 27.5794ZM102.696 27.5794C102.696 25.9471 102.382 24.7474 101.733 23.9411C101.103 23.1544 100.218 22.7611 99.0778 22.7611C97.9371 22.7611 97.0325 23.1544 96.4031 23.9411C95.7738 24.7278 95.4591 25.9471 95.4591 27.5794C95.4591 29.1528 95.7738 30.3524 96.4228 31.1588C97.0521 31.9651 97.9568 32.3781 99.0975 32.3781C100.218 32.3781 101.103 31.9651 101.752 31.1588C102.382 30.3721 102.696 29.1724 102.696 27.5794Z" fill="white"/>
<path d="M118.687 33.8535H116.563V26.6948C116.563 26.1245 116.524 25.5738 116.465 25.0625C116.406 24.5511 116.268 24.1578 116.091 23.8825C115.894 23.5678 115.639 23.3318 115.285 23.1745C114.931 23.0171 114.478 22.9385 113.908 22.9385C113.338 22.9385 112.728 23.0761 112.099 23.3711C111.469 23.6661 110.86 24.0201 110.289 24.4725V33.8733H108.165V21.2865H110.289V22.6828C110.958 22.1321 111.627 21.6995 112.335 21.4045C113.043 21.0898 113.77 20.9521 114.518 20.9521C115.875 20.9521 116.917 21.3651 117.625 22.1715C118.333 22.9975 118.687 24.1775 118.687 25.7115V33.8535Z" fill="white"/>
</g>
</g>
<defs>
<clipPath id="clip0_415_2095">
<rect width="119" height="43" fill="white" transform="translate(0.686279 -0.601562)"/>
</clipPath>
<clipPath id="clip1_415_2095">
<rect width="119" height="43" fill="white" transform="translate(0.686279 -0.601562)"/>
</clipPath>
</defs>
</svg>
