<svg width="137" height="41" viewBox="0 0 137 41" fill="none" xmlns="http://www.w3.org/2000/svg">
<g clip-path="url(#clip0_415_2115)">
<g clip-path="url(#clip1_415_2115)">
<mask id="mask0_415_2115" style="mask-type:luminance" maskUnits="userSpaceOnUse" x="0" y="3" width="137" height="35">
<path d="M136.186 3.89844H0.186279V37.8984H136.186V3.89844Z" fill="white"/>
</mask>
<g mask="url(#mask0_415_2115)">
<path d="M105.363 17.6976C106.479 17.6976 107.383 16.7928 107.383 15.6769C107.383 14.5609 106.479 13.6562 105.363 13.6562C104.247 13.6562 103.341 14.5609 103.341 15.6769C103.341 16.7928 104.247 17.6976 105.363 17.6976Z" fill="white"/>
<path d="M76.6154 24.2684C77.5998 24.2684 78.1725 23.5328 78.1296 22.8079C78.1199 22.5341 78.0863 22.2616 78.0294 21.9936C77.4262 19.3787 75.2982 17.4458 72.7675 17.4458C69.7678 17.4458 67.3354 20.1609 67.3354 23.5095C67.3354 26.8582 69.7678 29.5733 72.7675 29.5733C74.6467 29.5733 75.989 28.8896 76.9662 27.8175C77.0787 27.6947 77.1636 27.5493 77.2153 27.3911C77.267 27.2328 77.2844 27.0653 77.2663 26.8998C77.2481 26.7343 77.1949 26.5746 77.1102 26.4313C77.0255 26.2881 76.911 26.1645 76.7747 26.0689C76.3023 25.7414 75.7009 25.8524 75.266 26.2228C74.831 26.5933 74.0471 27.2967 72.7602 27.2967C71.2319 27.2967 69.9575 25.9937 69.6657 24.2648L76.6154 24.2684ZM72.7675 19.7206C74.1438 19.7206 75.3125 20.7747 75.7456 22.2459H69.7892C70.2242 20.7747 71.3929 19.7206 72.7675 19.7206Z" fill="white"/>
<path d="M67.4603 18.6215C67.4605 18.3526 67.3654 18.0924 67.1916 17.8873C67.0179 17.6821 66.777 17.5452 66.5117 17.5011C64.8562 17.2505 63.308 17.8698 62.4078 18.9884V18.8345C62.3961 18.5406 62.2712 18.2627 62.0591 18.059C61.8472 17.8551 61.5644 17.7413 61.2703 17.7413C60.9763 17.7413 60.6936 17.8551 60.4816 18.059C60.2696 18.2627 60.1446 18.5406 60.133 18.8345V28.1413C60.1289 28.4375 60.2375 28.7242 60.4369 28.9432C60.6363 29.1622 60.9116 29.2972 61.2068 29.3208C61.3619 29.3305 61.5172 29.3084 61.6634 29.2559C61.8095 29.2033 61.9433 29.1213 62.0565 29.0149C62.1697 28.9086 62.2599 28.7802 62.3216 28.6376C62.3832 28.4951 62.415 28.3414 62.4149 28.1861V23.3841C62.4149 21.2596 64.0114 19.5164 66.2039 19.7527C66.2788 19.7616 66.3545 19.7616 66.4294 19.7527C66.7114 19.7267 66.9735 19.5963 67.1642 19.3871C67.355 19.1777 67.4606 18.9047 67.4603 18.6215Z" fill="white"/>
<path d="M106.5 19.846C106.5 19.5446 106.38 19.2555 106.167 19.0423C105.953 18.8292 105.664 18.7095 105.363 18.7095C105.062 18.7095 104.773 18.8292 104.559 19.0423C104.346 19.2555 104.226 19.5446 104.226 19.846V28.1845C104.226 28.4859 104.346 28.775 104.559 28.9882C104.773 29.2013 105.062 29.321 105.363 29.321C105.664 29.321 105.953 29.2013 106.167 28.9882C106.38 28.775 106.5 28.4859 106.5 28.1845V19.846Z" fill="white"/>
<path d="M89.5706 13.5294C89.5706 13.38 89.5417 13.232 89.4847 13.094C89.4278 12.9559 89.3436 12.8303 89.2382 12.7247C89.1328 12.6189 89.007 12.535 88.8693 12.4778C88.7316 12.4206 88.5837 12.3911 88.4341 12.3911C88.2845 12.3911 88.1366 12.4206 87.9989 12.4778C87.8604 12.535 87.7354 12.6189 87.63 12.7247C87.5246 12.8303 87.4405 12.9559 87.3835 13.094C87.3266 13.232 87.2977 13.38 87.2977 13.5294V18.607C86.9177 18.2261 86.4638 17.9267 85.964 17.7269C85.4642 17.5272 84.929 17.4314 84.391 17.4455C81.3914 17.4455 78.959 20.1605 78.959 23.5092C78.959 26.8579 81.3914 29.5729 84.391 29.5729C84.9328 29.5851 85.471 29.4873 85.9742 29.2855C86.4774 29.0837 86.9339 28.7821 87.3172 28.3988C87.3699 28.6775 87.5246 28.9263 87.7507 29.0967C87.9777 29.267 88.2599 29.3466 88.5421 29.3196C88.8243 29.2928 89.0861 29.1614 89.2765 28.9512C89.4669 28.7412 89.5714 28.4676 89.5706 28.1841V13.5294ZM84.391 27.2999C82.6478 27.2999 81.2339 25.6033 81.2339 23.5092C81.2339 21.4151 82.6478 19.7202 84.391 19.7202C86.134 19.7202 87.5501 21.4169 87.5501 23.5092C87.5501 25.6015 86.1357 27.2999 84.391 27.2999Z" fill="white"/>
<path d="M101.447 13.5294C101.447 13.2275 101.327 12.938 101.114 12.7245C100.899 12.511 100.61 12.3911 100.309 12.3911C100.007 12.3916 99.7179 12.5117 99.5045 12.7252C99.2912 12.9386 99.1722 13.2279 99.1722 13.5294V18.607C98.7922 18.2263 98.3383 17.927 97.8394 17.7272C97.3396 17.5276 96.8049 17.4317 96.2669 17.4455C93.2655 17.4455 90.8337 20.1605 90.8337 23.5092C90.8337 26.8579 93.2655 29.5729 96.2669 29.5729C96.8092 29.5847 97.3472 29.4867 97.8504 29.2849C98.3528 29.0832 98.8101 28.7817 99.1934 28.3988C99.2461 28.6775 99.4008 28.9263 99.6269 29.0967C99.8539 29.267 100.136 29.3466 100.418 29.3196C100.7 29.2928 100.962 29.1614 101.153 28.9512C101.343 28.7412 101.448 28.4676 101.447 28.1841V13.5294ZM96.2669 27.2999C94.5218 27.2999 93.1083 25.6033 93.1083 23.5092C93.1083 21.4151 94.5218 19.7202 96.2669 19.7202C98.0119 19.7202 99.4246 21.4169 99.4246 23.5092C99.4246 25.6014 98.0102 27.2999 96.2669 27.2999Z" fill="white"/>
<path d="M112.277 28.1846V19.7207H113.292C113.553 19.7235 113.806 19.6278 113.999 19.4526C114.193 19.2775 114.312 19.0357 114.335 18.7757C114.344 18.638 114.324 18.5 114.277 18.3702C114.23 18.2405 114.157 18.1216 114.062 18.0211C113.968 17.9205 113.854 17.8403 113.728 17.7855C113.601 17.7305 113.464 17.7021 113.326 17.7019H112.281V16.0911C112.285 15.7977 112.177 15.5139 111.981 15.2964C111.784 15.079 111.512 14.9441 111.219 14.9187C111.063 14.9079 110.906 14.9295 110.758 14.9825C110.61 15.0354 110.475 15.1182 110.36 15.226C110.246 15.3338 110.155 15.464 110.094 15.6086C110.032 15.7532 110.001 15.9089 110.003 16.066V17.7073H109.061C108.801 17.704 108.549 17.7994 108.356 17.9743C108.162 18.1493 108.042 18.3908 108.02 18.6504C108.011 18.7881 108.031 18.9261 108.078 19.0559C108.124 19.1856 108.197 19.3045 108.291 19.405C108.386 19.5056 108.5 19.5858 108.626 19.6408C108.753 19.6957 108.889 19.7241 109.027 19.7243H110.003V28.1882C110.003 28.3375 110.032 28.4855 110.09 28.6235C110.147 28.7615 110.231 28.8869 110.336 28.9925C110.441 29.0979 110.567 29.1817 110.706 29.2387C110.844 29.2956 110.991 29.3249 111.141 29.3246C111.291 29.3246 111.439 29.2951 111.576 29.2378C111.715 29.1805 111.841 29.0964 111.946 28.9905C112.051 28.8846 112.135 28.7589 112.192 28.6206C112.249 28.4823 112.277 28.3341 112.277 28.1846Z" fill="white"/>
<path d="M40.512 8.90603C42.8837 8.90603 45.2021 9.60931 47.1741 10.927C49.1461 12.2446 50.6831 14.1174 51.5906 16.3086C52.4983 18.4997 52.7358 20.9108 52.273 23.237C51.8104 25.5631 50.6683 27.6997 48.9912 29.3768C47.3142 31.0538 45.1776 32.1959 42.8514 32.6586C40.5253 33.1213 38.1142 32.8838 35.923 31.9762C33.7319 31.0686 31.8591 29.5316 30.5414 27.5596C29.2238 25.5876 28.5205 23.2692 28.5205 20.8975C28.5205 17.7171 29.7839 14.6671 32.0327 12.4182C34.2816 10.1694 37.3316 8.90603 40.512 8.90603ZM40.512 6.7583C37.7155 6.7583 34.9818 7.58754 32.6566 9.14118C30.3315 10.6948 28.5193 12.9031 27.449 15.4867C26.3789 18.0703 26.0989 20.9132 26.6444 23.6559C27.19 26.3987 28.5367 28.918 30.514 30.8955C32.4915 32.8728 35.0108 34.2195 37.7536 34.7651C40.4963 35.3106 43.3393 35.0306 45.9228 33.9605C48.5064 32.8902 50.7147 31.078 52.2683 28.7529C53.822 26.4277 54.6512 23.694 54.6512 20.8975C54.6469 17.1488 53.1559 13.5549 50.5052 10.9043C47.8545 8.2536 44.2607 6.76256 40.512 6.7583Z" fill="white"/>
<path d="M48.5013 20.8977C48.5001 20.5551 48.3983 20.2205 48.2085 19.9352C48.0188 19.65 47.7494 19.4268 47.4339 19.2934C47.1184 19.1599 46.7706 19.1221 46.4338 19.1846C46.0969 19.247 45.7859 19.4071 45.5392 19.6448C44.3436 18.7822 42.6971 18.2256 40.8625 18.1612L41.659 14.4134L44.2631 14.9664C44.2771 15.2712 44.402 15.5603 44.6141 15.7796C44.8262 15.9989 45.1109 16.1332 45.415 16.1575C45.7192 16.1817 46.0217 16.0941 46.2658 15.9112C46.5099 15.7283 46.679 15.4626 46.7411 15.164C46.8033 14.8653 46.7544 14.5542 46.6036 14.2891C46.4527 14.0239 46.2103 13.8229 45.9218 13.7238C45.6332 13.6246 45.3185 13.6342 45.0365 13.7505C44.7545 13.867 44.5248 14.0823 44.3902 14.3561L41.4872 13.7386C41.4472 13.73 41.4058 13.7293 41.3656 13.7366C41.3254 13.744 41.287 13.7593 41.2527 13.7816C41.1832 13.8268 41.1344 13.8975 41.1167 13.9784L40.2218 18.1612C38.3658 18.213 36.6888 18.7643 35.4824 19.6448C35.2975 19.4731 35.0776 19.3434 34.8377 19.2648C34.5979 19.1862 34.3438 19.1605 34.093 19.1895C33.8423 19.2185 33.6008 19.3015 33.3852 19.4328C33.1696 19.5641 32.9851 19.7405 32.8441 19.95C32.7033 20.1594 32.6095 20.3969 32.5692 20.6461C32.529 20.8953 32.5432 21.1502 32.6109 21.3934C32.6786 21.6366 32.7982 21.8622 32.9615 22.0547C33.1248 22.2472 33.3279 22.402 33.5567 22.5085C33.5291 22.6862 33.5153 22.8657 33.5156 23.0454C33.5156 25.7301 36.6476 27.9172 40.5099 27.9172C44.3723 27.9172 47.5062 25.7354 47.5062 23.0454C47.506 22.8692 47.4922 22.6933 47.465 22.5192C47.7774 22.3799 48.0421 22.1521 48.2262 21.8639C48.4104 21.5756 48.5061 21.2397 48.5013 20.8977ZM36.5098 22.1506C36.5098 21.9028 36.5833 21.6605 36.721 21.4545C36.8586 21.2485 37.0543 21.0879 37.2832 20.993C37.5122 20.8983 37.764 20.8734 38.007 20.9218C38.2501 20.9701 38.4733 21.0894 38.6485 21.2647C38.8237 21.4399 38.9431 21.6631 38.9914 21.9061C39.0398 22.1491 39.015 22.4011 38.9201 22.63C38.8253 22.859 38.6647 23.0545 38.4587 23.1922C38.2527 23.3299 38.0104 23.4034 37.7627 23.4034C37.4304 23.4034 37.1117 23.2714 36.8768 23.0364C36.6418 22.8015 36.5098 22.4828 36.5098 22.1506ZM43.49 25.4491C42.6362 26.2992 41.004 26.3655 40.5224 26.3655C40.041 26.3655 38.4087 26.2992 37.5568 25.4491C37.5268 25.419 37.5029 25.3833 37.4866 25.344C37.4703 25.3047 37.4619 25.2626 37.4619 25.22C37.4619 25.1775 37.4703 25.1353 37.4866 25.096C37.5029 25.0567 37.5268 25.021 37.5568 24.9909C37.5869 24.9608 37.6227 24.937 37.6619 24.9207C37.7012 24.9044 37.7434 24.8961 37.786 24.8961C37.8285 24.8961 37.8706 24.9044 37.9099 24.9207C37.9492 24.937 37.9849 24.9608 38.015 24.9909C38.552 25.5279 39.701 25.7194 40.5207 25.7194C41.3404 25.7194 42.4894 25.5279 43.0264 24.9909C43.0871 24.9295 43.1699 24.8946 43.2563 24.8941C43.3427 24.8936 43.4258 24.9275 43.4872 24.9882C43.5487 25.049 43.5835 25.1317 43.5841 25.2181C43.5846 25.3046 43.5507 25.3876 43.49 25.4491ZM43.2608 23.4034C43.013 23.4034 42.7709 23.3299 42.5648 23.1922C42.3588 23.0545 42.1982 22.859 42.1034 22.63C42.0086 22.4011 41.9838 22.1491 42.032 21.9061C42.0804 21.6631 42.1997 21.4399 42.3749 21.2647C42.5501 21.0894 42.7734 20.9701 43.0164 20.9218C43.2594 20.8734 43.5114 20.8983 43.7403 20.993C43.9692 21.0879 44.1649 21.2485 44.3026 21.4545C44.4402 21.6605 44.5137 21.9028 44.5137 22.1506C44.5137 22.4828 44.3817 22.8015 44.1468 23.0364C43.9118 23.2714 43.5932 23.4034 43.2608 23.4034Z" fill="white"/>
</g>
</g>
</g>
<defs>
<clipPath id="clip0_415_2115">
<rect width="136" height="40" fill="white" transform="translate(0.186279 0.898438)"/>
</clipPath>
<clipPath id="clip1_415_2115">
<rect width="136" height="34" fill="white" transform="translate(0.186279 3.89844)"/>
</clipPath>
</defs>
</svg>
