<svg width="63" height="33" viewBox="0 0 63 33" fill="none" xmlns="http://www.w3.org/2000/svg">
<g clip-path="url(#clip0_415_2068)">
<g clip-path="url(#clip1_415_2068)">
<mask id="mask0_415_2068" style="mask-type:luminance" maskUnits="userSpaceOnUse" x="0" y="1" width="63" height="32">
<path d="M62.1752 1.37451H0.197998V32.4219H62.1752V1.37451Z" fill="white"/>
</mask>
<g mask="url(#mask0_415_2068)">
<path d="M39.9024 22.8345C46.7065 20.1244 50.9447 18.5676 62.1887 15.8286C56.0766 16.2323 42.6125 17.126 33.329 18.9712C33.3001 18.9424 39.7583 22.748 39.9024 22.8345Z" fill="white"/>
<path d="M18.7429 31.8586H27.6517C29.3815 29.2061 31.1979 27.8799 33.1872 26.4384C31.6592 25.8329 30.1023 25.2563 28.5166 24.7085C22.8369 27.188 19.6655 30.5323 18.7429 31.8586Z" fill="white"/>
<path d="M20.4994 22.1426C12.5709 24.968 8.15977 28.0818 5.19019 31.8586H14.9927C15.9441 30.5036 19.6057 26.669 26.4674 24.0166C24.5358 23.3535 21.2779 22.3444 20.4994 22.1426Z" fill="white"/>
<path d="M24.5932 16.146H2.88354C24.7662 20.1246 35.3183 25.2277 52.3286 32.4066C50.8294 31.3399 27.4187 17.5587 24.5932 16.146Z" fill="white"/>
<path d="M47.8023 3.54688C44.9192 3.54688 43.0164 5.2479 43.0164 7.78502C43.0164 10.2068 45.0922 12.0231 47.8023 12.0231C50.6277 12.0231 52.6171 10.2645 52.6171 7.78502C52.6171 5.2479 50.6854 3.54688 47.8023 3.54688ZM47.8023 9.94733C46.5914 9.94733 45.64 8.96708 45.64 7.78502C45.64 6.60295 46.6202 5.62269 47.8023 5.62269C48.9844 5.62269 49.9646 6.60295 49.9646 7.78502C49.9646 8.96708 49.0132 9.94733 47.8023 9.94733Z" fill="white"/>
<path d="M38.146 3.66192H36.4161V5.85307H37.5982C38.5496 5.85307 39.328 6.68917 39.328 7.69825C39.328 8.93798 38.3189 9.54343 37.6558 9.57226H35.5223V1.38428H32.8699V11.7634H37.6558C39.7605 11.7634 42.0381 10.1777 42.0381 7.78474C41.9805 5.21879 40.02 3.66192 38.146 3.66192Z" fill="white"/>
<path d="M14.2166 7.69841C14.2166 6.6605 15.0527 5.8244 16.0618 5.8244H18.1665L16.4654 8.67866H19.0026L20.7036 6.02622V3.69092H15.6293C13.4094 3.69092 11.6218 5.50726 11.6218 7.72724C11.6218 9.94722 13.4094 11.7636 15.6293 11.7636H20.7036V9.57242H16.0618C15.0527 9.57242 14.2166 8.73633 14.2166 7.69841Z" fill="white"/>
<path d="M6.66198 1.38477H0.203857V11.7639H2.76981V3.66241H6.1142C7.03679 3.66241 8.01704 4.15254 8.01704 5.50759C8.01704 6.5455 7.26743 7.35277 6.25835 7.35277H3.6924V9.51508H5.50875C7.06562 9.57275 7.72873 10.2935 7.75756 11.8215V14.0415H10.4677V11.0719C10.4677 9.51508 9.37209 8.70782 8.30535 8.44834C9.97754 7.87172 10.8137 6.57433 10.8137 4.98863C10.7272 2.76865 8.62249 1.38477 6.66198 1.38477Z" fill="white"/>
<path d="M59.7671 7.43877C61.5546 6.89098 62.0736 5.91073 62.0736 3.95022V3.66192H59.45V4.09438C59.45 5.39177 58.9022 6.34319 57.6625 6.34319H56.4227V1.38428H53.7703V11.7634H56.4227V8.53434H57.3742C58.7004 8.53434 59.5076 9.28394 59.5076 10.4948V11.7634H62.1601V10.5813C62.1601 9.02447 61.4681 7.90006 59.7671 7.43877Z" fill="white"/>
<path d="M24.5662 7.69844C24.5662 6.66053 25.4023 5.82443 26.4114 5.82443H28.5161L26.8151 8.64986H29.3522L31.0532 5.99742V3.66211H25.979C23.759 3.66211 21.9715 5.47846 21.9715 7.69844C21.9715 9.91842 23.759 11.7347 25.979 11.7347H31.0532V9.54362H26.3826C25.4023 9.57245 24.5662 8.73635 24.5662 7.69844Z" fill="white"/>
</g>
</g>
</g>
<defs>
<clipPath id="clip0_415_2068">
<rect width="62" height="32" fill="white" transform="translate(0.186279 0.898438)"/>
</clipPath>
<clipPath id="clip1_415_2068">
<rect width="62" height="32" fill="white" transform="translate(0.186279 0.898438)"/>
</clipPath>
</defs>
</svg>
