<svg width="106" height="24" viewBox="0 0 106 24" fill="none" xmlns="http://www.w3.org/2000/svg">
<path d="M68.7696 8.70228C67.0016 7.14961 64.8709 6.39028 62.4116 6.39028C59.9863 6.39028 57.8556 7.14961 56.0876 8.70228C54.3196 10.2209 53.4243 12.3289 53.4243 15.0376C53.4243 17.7463 54.3196 19.8543 56.0876 21.3956C57.8556 22.9143 59.9863 23.6736 62.4116 23.6736C64.8709 23.6736 67.0016 22.9143 68.7696 21.3956C70.5716 19.8429 71.4669 17.7349 71.4669 15.0376C71.4669 12.3289 70.5603 10.2209 68.7696 8.70228ZM59.0909 18.4943C58.1616 17.6103 57.6969 16.4543 57.6969 15.0376C57.6969 13.6209 58.1616 12.4649 59.0909 11.6036C60.0203 10.7196 61.1196 10.2889 62.4116 10.2889C63.7036 10.2889 64.8369 10.7196 65.7663 11.6036C66.7296 12.4649 67.1943 13.6096 67.1943 15.0376C67.1943 16.4656 66.7296 17.6103 65.7663 18.4943C64.8369 19.3556 63.7036 19.7749 62.4116 19.7749C61.1196 19.7749 60.0203 19.3443 59.0909 18.4943ZM77.7569 23.2089V0.587611H73.5636V23.2089H77.7569ZM91.2889 6.85494V15.8763C91.2889 18.0523 90.0989 19.4916 87.8436 19.4916C85.5429 19.4916 84.3869 18.0523 84.3869 15.8763V6.85494H80.1823V16.5789C80.1823 20.3416 82.5736 23.6736 87.8323 23.6736H87.8663C93.0909 23.6736 95.4823 20.2736 95.4823 16.5789V6.85494H91.2889ZM48.9703 6.85494L44.7769 17.9276L40.5836 6.85494H36.1296L42.8163 23.2089H46.7489L53.4356 6.85494H48.9703ZM36.1409 14.5729C36.1409 12.2043 35.3816 10.2549 33.8743 8.70228C32.3783 7.14961 30.4516 6.39028 28.0829 6.39028C25.6576 6.39028 23.5949 7.21761 21.8949 8.82694C20.2289 10.4476 19.4016 12.4876 19.4016 15.0263C19.4016 17.5649 20.2289 19.6389 21.8609 21.2596C23.5269 22.8803 25.5216 23.6623 27.8789 23.6623C31.5056 23.6623 34.0669 22.0756 35.6309 18.8796L32.5143 17.1116C31.4829 19.1176 29.9869 20.1149 27.9583 20.1149C25.4649 20.1149 23.6969 18.5283 23.4363 16.0236H36.1409V14.5729ZM27.9583 9.55227C30.3156 9.55227 31.8909 10.8669 32.2876 12.9863H23.4363C24.0709 11.0369 25.7936 9.55227 27.9583 9.55227ZM19.4129 23.2089L13.7916 13.4509C17.3503 12.1703 19.1183 9.92628 19.1183 6.66227C19.1183 2.67294 15.9223 0.134277 10.8336 0.134277H0.882946V23.2089H5.28028V13.8476H9.00895L14.3923 23.2089H19.4129ZM10.8223 3.95361C13.4176 3.95361 14.7209 4.97361 14.7209 6.99094C14.7209 8.99694 13.4176 10.0283 10.8223 10.0283H5.26895V3.96494H10.8223V3.95361ZM102.6 23.6623C99.9023 23.6623 97.7149 21.4976 97.7149 18.8116V2.43494H101.908V6.85494H105.501V10.2209H101.908V18.5509C101.908 19.3329 102.554 19.9676 103.348 19.9676H105.512V23.6623H102.6Z" fill="white"/>
</svg>
