<svg width="115" height="25" viewBox="0 0 115 25" fill="none" xmlns="http://www.w3.org/2000/svg">
<g clip-path="url(#clip0_415_2107)">
<g clip-path="url(#clip1_415_2107)">
<mask id="mask0_415_2107" style="mask-type:luminance" maskUnits="userSpaceOnUse" x="0" y="1" width="114" height="24">
<path d="M113.782 1.60303H0.588623V24.1945H113.782V1.60303Z" fill="white"/>
</mask>
<g mask="url(#mask0_415_2107)">
<path d="M19.0769 16.6955C19.0769 19.4782 17.4733 21.1761 14.9265 21.6949C14.219 21.8363 13.0399 21.8363 12.2381 21.8363L6.05963 21.7892V24.1474L0.588623 19.6668L6.05963 15.1862V17.5444L12.9927 17.5916C13.653 17.5916 13.936 17.2143 13.936 16.837C13.936 16.1295 13.2757 15.8937 11.2948 14.9504C8.13484 13.4412 5.68232 12.3564 5.68232 8.91343C5.68232 6.22509 7.61604 4.3857 10.4459 4.00839C11.0119 3.91406 12.0966 3.91406 12.7569 3.91406C14.1718 3.91406 18.1336 4.00839 18.1336 4.00839V8.3003L11.625 8.20597C11.059 8.20597 10.776 8.58328 10.776 8.96059C10.776 9.52656 11.2477 9.76238 13.0871 10.6113C16.9545 12.4036 19.0769 13.394 19.0769 16.6955ZM29.3114 16.3653C29.3114 17.1671 28.604 17.8274 27.3306 17.8274C25.9628 17.8274 25.3497 17.1671 25.3497 16.3653V3.96122H20.0202V16.7898C20.0202 19.6196 22.3783 22.308 27.2834 22.308C31.9526 22.308 34.5466 19.6668 34.5466 16.7898V3.96122H29.3114V16.3653ZM50.9125 16.4597C50.9125 19.997 48.5071 21.9307 45.017 21.9307H36.1974V3.96122H44.6869C48.5071 3.96122 50.4408 6.0836 50.4408 8.86627C50.4408 10.2812 49.7806 11.5075 48.46 12.4036C50.0164 13.2525 50.9125 14.5731 50.9125 16.4597ZM41.4326 11.083H43.8851C44.8284 11.083 45.2528 10.4227 45.2528 9.4794C45.2528 8.48896 44.8284 7.87583 43.8851 7.87583H41.4326V11.083ZM45.583 16.2238C45.583 15.1391 45.0642 14.5259 44.1209 14.5259H41.4326V17.9217H44.1209C45.1113 17.9217 45.583 17.2615 45.583 16.2238Z" fill="white"/>
<path d="M68.5525 3.96122H73.7876V16.6012C73.7876 19.5253 71.7124 22.1665 67.3262 22.1665C65.4396 22.1665 63.9776 21.6005 62.9399 20.7516C61.9023 21.6005 60.4874 22.1665 58.7424 22.1665C54.0731 22.1665 52.1394 19.5253 52.1394 16.6012V3.96122H57.3746V16.5068C57.3746 17.0256 57.6576 17.6859 58.8367 17.6859C60.0158 17.6859 60.3459 17.0728 60.3459 16.5068V3.96122H65.5811V16.5068C65.5811 17.0256 65.8641 17.6859 67.0432 17.6859C68.2223 17.6859 68.5525 17.0728 68.5525 16.5068V3.96122ZM96.332 11.0358V3.96122H91.1439V11.5075C91.1439 14.0071 92.8418 15.8937 95.7188 16.6955V21.8835H101.048V16.6955C103.972 15.8937 105.576 14.0071 105.576 11.5075V8.72477C105.576 8.44179 105.717 8.30029 106 8.30029H108.311V10.5642L113.782 6.08359L108.311 1.60303V3.86689H104.68C101.614 3.86689 100.341 5.65912 100.341 8.20597V11.0358C100.341 11.6961 99.8693 12.4979 98.3128 12.4979C96.8036 12.4979 96.332 11.6961 96.332 11.0358ZM89.8234 9.10208V21.9307H84.5882V16.6955H80.6264V21.8835H75.3912V9.10208C75.3912 5.89494 78.0324 3.44242 82.6073 3.44242C87.135 3.44242 89.8234 5.84777 89.8234 9.10208ZM84.5882 12.5922V9.38506C84.5882 8.53611 83.975 7.92298 82.6073 7.92298C81.1924 7.92298 80.6264 8.53611 80.6264 9.38506V12.5922H84.5882Z" fill="white"/>
</g>
</g>
</g>
<defs>
<clipPath id="clip0_415_2107">
<rect width="114" height="24" fill="white" transform="translate(0.186279 0.898438)"/>
</clipPath>
<clipPath id="clip1_415_2107">
<rect width="114" height="24" fill="white" transform="translate(0.186279 0.898438)"/>
</clipPath>
</defs>
</svg>
